<?xml version="1.0" encoding="utf-8"?>
<!-- Generator: Adobe Illustrator 25.0.0, SVG Export Plug-In . SVG Version: 6.00 Build 0)  -->
<svg version="1.1" id="图层_1" xmlns="http://www.w3.org/2000/svg" xmlns:xlink="http://www.w3.org/1999/xlink" x="0px" y="0px"
	 viewBox="0 0 217 216.9" style="enable-background:new 0 0 217 216.9;" xml:space="preserve">
<style type="text/css">
	.st0{fill-rule:evenodd;clip-rule:evenodd;fill:#438A7B;}
	.st1{font-family:'STKaiti';}
	.st2{font-size:21.1908px;}
	.st3{font-family:'SimHei';}
	.st4{font-size:12.1769px;}
</style>
<g>
	<path class="st0" d="M65.7,114.2l1.5-5.4l1.5-5.4h-6l1.5,5.4L65.7,114.2z M39.4,104.2v-5.5c4.6,2.3,8.8,5.4,12.4,9
		c5.9,6.1,10.4,13.4,13.3,21.4c-2.7-5.3-6.2-10.1-10.3-14.3C50.3,110.4,45.1,106.9,39.4,104.2L39.4,104.2z M39.4,112v-4.1
		c4.8,2.3,9.2,5.5,13,9.3c5,5.1,8.9,11.1,11.7,17.6c-2.5-4.4-5.6-8.5-9.2-12.1C50.5,118.2,45.2,114.6,39.4,112L39.4,112z
		 M62.2,138.2H44c-2.5,0-4.6-2.1-4.6-4.6v-17.9c4.9,2.3,9.4,5.5,13.2,9.4c3.8,3.9,7.1,8.4,9.6,13.3V138.2z M91.9,114.6v18.9
		c0,2.5-2.1,4.6-4.6,4.6H71.2c2.3-5.1,5.3-9.7,8.9-13.9C83.5,120.5,87.5,117.2,91.9,114.6L91.9,114.6z M91.9,106.6v4.2
		c-5.4,2.9-10.1,6.6-14.1,11.2c-3.4,3.8-6.2,8.1-8.5,12.6c2.4-6.7,6-12.9,10.7-18.3c3.4-3.8,7.4-7,11.9-9.6V106.6z M91.9,96.8v6
		c-5.5,2.9-10.4,6.8-14.5,11.4c-4.6,5.4-8.2,11.6-10.7,18.2v-0.2l0.7-2.4c2.3-8.4,6.5-16.2,12.2-22.9c3.5-4,7.7-7.4,12.3-10V96.8z
		 M44,85.6h18.8v15.6h5.6V85.6h18.8c2.5,0,4.6,2.1,4.6,4.6V93c-5.7,2.9-10.7,6.8-14.9,11.6c-4.7,5.4-8.4,11.5-10.9,18.1
		C63,116.3,59,110.4,54,105.3c-4.3-4.3-9.3-7.8-14.8-10.3v-4.6c0-2.6,2.1-4.6,4.7-4.6c0,0,0.1,0,0.1,0V85.6z"/>
</g>
<text transform="matrix(1 0 0 1 107.1875 115.6442)" class="st1 st2">杰伟服饰</text>
<text transform="matrix(0.9397 0 0 1 109.7305 135.8244)" class="st3 st4">JIE WEI FU SHI</text>
</svg>
