<?xml version="1.0" encoding="utf-8"?>
<!-- Generator: Adobe Illustrator 25.0.0, SVG Export Plug-In . SVG Version: 6.00 Build 0)  -->
<svg version="1.1" id="图层_1" xmlns="http://www.w3.org/2000/svg" xmlns:xlink="http://www.w3.org/1999/xlink" x="0px" y="0px"
	 viewBox="0 0 217 216.9" style="enable-background:new 0 0 217 216.9;" xml:space="preserve">
<style type="text/css">
	.st0{clip-path:url(#SVGID_2_);fill:url(#SVGID_3_);}
	.st1{clip-path:url(#SVGID_5_);fill:url(#SVGID_6_);}
	.st2{clip-path:url(#SVGID_8_);fill:url(#SVGID_9_);}
	.st3{clip-path:url(#SVGID_11_);fill:url(#SVGID_12_);}
	.st4{clip-path:url(#SVGID_14_);fill:url(#SVGID_15_);}
	.st5{clip-path:url(#SVGID_17_);fill:url(#SVGID_18_);}
	.st6{clip-path:url(#SVGID_20_);fill:url(#SVGID_21_);}
	.st7{clip-path:url(#SVGID_23_);fill:url(#SVGID_24_);}
	.st8{clip-path:url(#SVGID_26_);fill:url(#SVGID_27_);}
	.st9{clip-path:url(#SVGID_29_);fill:url(#SVGID_30_);}
	.st10{clip-path:url(#SVGID_32_);fill:url(#SVGID_33_);}
	.st11{clip-path:url(#SVGID_35_);fill:url(#SVGID_36_);}
	.st12{clip-path:url(#SVGID_38_);fill:url(#SVGID_39_);}
	.st13{clip-path:url(#SVGID_41_);fill:url(#SVGID_42_);}
	.st14{clip-path:url(#SVGID_44_);fill:url(#SVGID_45_);}
	.st15{clip-path:url(#SVGID_47_);fill:url(#SVGID_48_);}
	.st16{clip-path:url(#SVGID_50_);fill:url(#SVGID_51_);}
	.st17{clip-path:url(#SVGID_53_);fill:url(#SVGID_54_);}
	.st18{clip-path:url(#SVGID_56_);fill:url(#SVGID_57_);}
	.st19{clip-path:url(#SVGID_59_);fill:url(#SVGID_60_);}
	.st20{clip-path:url(#SVGID_62_);fill:url(#SVGID_63_);}
	.st21{clip-path:url(#SVGID_65_);fill:url(#SVGID_66_);}
	.st22{clip-path:url(#SVGID_68_);fill:url(#SVGID_69_);}
	.st23{clip-path:url(#SVGID_71_);fill:url(#SVGID_72_);}
	.st24{clip-path:url(#SVGID_74_);fill:url(#SVGID_75_);}
	.st25{clip-path:url(#SVGID_77_);fill:url(#SVGID_78_);}
	.st26{clip-path:url(#SVGID_80_);fill:url(#SVGID_81_);}
	.st27{clip-path:url(#SVGID_83_);fill:url(#SVGID_84_);}
	.st28{clip-path:url(#SVGID_86_);fill:url(#SVGID_87_);}
	.st29{clip-path:url(#SVGID_89_);fill:url(#SVGID_90_);}
	.st30{clip-path:url(#SVGID_92_);fill:url(#SVGID_93_);}
	.st31{clip-path:url(#SVGID_95_);fill:url(#SVGID_96_);}
	.st32{clip-path:url(#SVGID_98_);fill:url(#SVGID_99_);}
	.st33{fill:#AC5A22;}
	.st34{font-family:'ErasITC-Demi';}
	.st35{font-size:13.8967px;}
</style>
<g>
	<g>
		<g>
			<defs>
				<path id="SVGID_1_" d="M101.3,109.6c-1.7-1.2-3-2.4-4-3.6c-1-1.3-1.6-2.6-1.6-3.7V86.8l10.7-2l10.7,2v15.5
					c0,1.2-0.5,2.4-1.6,3.7c-0.9,1.2-2.3,2.4-4,3.6c-2,1.5-4.1,2.6-5.2,3.1C105.4,112.2,103.4,111.1,101.3,109.6 M95.4,85.8v16.4
					c0,1.3,0.6,2.6,1.7,4c1,1.2,2.3,2.5,4,3.7c2.1,1.5,4.3,2.7,5.4,3.2l0.1,0l0.1,0c1.1-0.5,3.2-1.7,5.4-3.2c1.7-1.3,3.1-2.5,4-3.7
					c1.1-1.4,1.7-2.8,1.7-4V85.8l-11.2-2L95.4,85.8z"/>
			</defs>
			<clipPath id="SVGID_2_">
				<use xlink:href="#SVGID_1_"  style="overflow:visible;"/>
			</clipPath>
			
				<linearGradient id="SVGID_3_" gradientUnits="userSpaceOnUse" x1="-812.7204" y1="183.0946" x2="-812.001" y2="183.0946" gradientTransform="matrix(0 75.0853 -75.0853 0 13854.2383 61094.6445)">
				<stop  offset="0" style="stop-color:#DABF8D"/>
				<stop  offset="1" style="stop-color:#AE905D"/>
			</linearGradient>
			<rect x="95.4" y="83.8" class="st0" width="22.3" height="29.4"/>
		</g>
	</g>
	<g>
		<g>
			<defs>
				<path id="SVGID_4_" d="M102.6,108c-1.5-1.1-2.8-2.2-3.6-3.3c-0.7-0.9-1.1-1.8-1.1-2.4v-14l8.7-1.6l8.7,1.6v14
					c0,0.6-0.4,1.5-1.1,2.4c-0.8,1.1-2,2.2-3.6,3.3c-1.4,1-2.9,1.9-3.9,2.5C105.5,109.9,104,109,102.6,108 M97.2,87.7v14.5
					c0,0.8,0.4,1.8,1.3,2.8c0.9,1.1,2.1,2.3,3.7,3.4c1.6,1.2,3.2,2.1,4.3,2.7c1.1-0.6,2.7-1.5,4.3-2.7c1.6-1.2,3.3-2.2,4.1-3.3
					c0.8-1,1.3-2,1.3-2.8V87.9l-9.7-1.9L97.2,87.7z"/>
			</defs>
			<clipPath id="SVGID_5_">
				<use xlink:href="#SVGID_4_"  style="overflow:visible;"/>
			</clipPath>
			
				<linearGradient id="SVGID_6_" gradientUnits="userSpaceOnUse" x1="-812.6246" y1="182.9854" x2="-811.9048" y2="182.9854" gradientTransform="matrix(0 74.0797 -74.0797 0 13662.2266 60270.8555)">
				<stop  offset="0" style="stop-color:#DABF8D"/>
				<stop  offset="1" style="stop-color:#AE905D"/>
			</linearGradient>
			<rect x="97.2" y="86" class="st1" width="19" height="25.2"/>
		</g>
	</g>
	<g>
		<g>
			<defs>
				<path id="SVGID_7_" d="M91.3,106.3c-1.7,0.2-8.3,3.3-11.5,4.8c-1,0.5-1.7,0.9-2.1,0.9c0,0,0.3,0.4,1.2,0.3
					c0.6,0,2.2,0.2,2.2,0.2c0,0.5-0.1,1.3-0.5,1.9c-0.3,0.6-0.1,1-0.1,1s0.4-0.4,1.2-0.8c2.6-1.3,8.8-4,10.9-4.2
					c2.1-0.2,3.7,0.7,3.7,0.7s-0.5-1.3-0.6-2.3c0-1.1-0.3-1.5-0.7-1.8c-0.4-0.3-1-0.7-2.5-0.7C92.2,106.2,91.8,106.2,91.3,106.3"/>
			</defs>
			<clipPath id="SVGID_8_">
				<use xlink:href="#SVGID_7_"  style="overflow:visible;"/>
			</clipPath>
			
				<linearGradient id="SVGID_9_" gradientUnits="userSpaceOnUse" x1="-812.6183" y1="182.8824" x2="-811.8987" y2="182.8824" gradientTransform="matrix(0 74.0795 -74.0795 0 13634.8906 60268.9688)">
				<stop  offset="0" style="stop-color:#DABF8D"/>
				<stop  offset="1" style="stop-color:#AE905D"/>
			</linearGradient>
			<rect x="77.8" y="106.2" class="st2" width="18.6" height="9.2"/>
		</g>
	</g>
	<g>
		<g>
			<defs>
				<path id="SVGID_10_" d="M116.5,113.9c-9.6,0.4-11.2,0.8-17.4,1.3c-6.8,0.6-6.4,0.5-12.8,0.5c0,0,2.5,1.3,3.2,2
					c0.7,0.7,0.5,1.3,2.2,1.5c4.8,0.3,16.8-1.4,24.9-1.7c8.1-0.2,11.1-0.7,17.4-0.3c10.4,0.6,12.8,1.4,12.8,1.4s-1.7-1.3-3.2-2.6
					c-1.2-1.2-0.5-1.4-1.4-1.8c-0.6-0.2-5.2-0.5-12-0.5C126.1,113.6,121.5,113.7,116.5,113.9"/>
			</defs>
			<clipPath id="SVGID_11_">
				<use xlink:href="#SVGID_10_"  style="overflow:visible;"/>
			</clipPath>
			
				<linearGradient id="SVGID_12_" gradientUnits="userSpaceOnUse" x1="-812.6215" y1="183.0373" x2="-811.9019" y2="183.0373" gradientTransform="matrix(0 74.0795 -74.0795 0 13675.7734 60269.75)">
				<stop  offset="0" style="stop-color:#DABF8D"/>
				<stop  offset="1" style="stop-color:#AE905D"/>
			</linearGradient>
			<rect x="86.2" y="113.6" class="st3" width="60.5" height="5.9"/>
		</g>
	</g>
	<g>
		<g>
			<defs>
				<path id="SVGID_13_" d="M91.4,110.9v3.2c0.1,0,0.2,0,0.3-0.1v-3.3C91.6,110.9,91.5,110.9,91.4,110.9"/>
			</defs>
			<clipPath id="SVGID_14_">
				<use xlink:href="#SVGID_13_"  style="overflow:visible;"/>
			</clipPath>
			
				<linearGradient id="SVGID_15_" gradientUnits="userSpaceOnUse" x1="-812.6185" y1="182.9063" x2="-811.8989" y2="182.9063" gradientTransform="matrix(0 74.0801 -74.0801 0 13641.252 60269.4453)">
				<stop  offset="0" style="stop-color:#DABF8D"/>
				<stop  offset="1" style="stop-color:#AE905D"/>
			</linearGradient>
			<rect x="91.4" y="110.9" class="st4" width="0.3" height="3.3"/>
		</g>
	</g>
	<g>
		<g>
			<defs>
				<path id="SVGID_16_" d="M88.7,111.9v2.8c0.1,0,0.2,0,0.3,0v-2.9C88.9,111.8,88.8,111.8,88.7,111.9"/>
			</defs>
			<clipPath id="SVGID_17_">
				<use xlink:href="#SVGID_16_"  style="overflow:visible;"/>
			</clipPath>
			
				<linearGradient id="SVGID_18_" gradientUnits="userSpaceOnUse" x1="-812.6181" y1="182.8917" x2="-811.8986" y2="182.8917" gradientTransform="matrix(0 74.0793 -74.0793 0 13637.3516 60268.8281)">
				<stop  offset="0" style="stop-color:#DABF8D"/>
				<stop  offset="1" style="stop-color:#AE905D"/>
			</linearGradient>
			<rect x="88.7" y="111.8" class="st5" width="0.3" height="2.9"/>
		</g>
	</g>
	<g>
		<g>
			<defs>
				<path id="SVGID_19_" d="M88.2,112.2v2.5c0.1,0,0.2,0,0.3,0V112C88.4,112.1,88.3,112.1,88.2,112.2"/>
			</defs>
			<clipPath id="SVGID_20_">
				<use xlink:href="#SVGID_19_"  style="overflow:visible;"/>
			</clipPath>
			
				<linearGradient id="SVGID_21_" gradientUnits="userSpaceOnUse" x1="-812.6181" y1="182.8887" x2="-811.8986" y2="182.8887" gradientTransform="matrix(0 74.079 -74.079 0 13636.5479 60268.5938)">
				<stop  offset="0" style="stop-color:#DABF8D"/>
				<stop  offset="1" style="stop-color:#AE905D"/>
			</linearGradient>
			<rect x="88.2" y="112" class="st6" width="0.3" height="2.7"/>
		</g>
	</g>
	<g>
		<g>
			<defs>
				<path id="SVGID_22_" d="M91.9,110.8v3.3c0.1,0,0.2,0,0.3-0.1v-3.3C92.1,110.7,92,110.8,91.9,110.8"/>
			</defs>
			<clipPath id="SVGID_23_">
				<use xlink:href="#SVGID_22_"  style="overflow:visible;"/>
			</clipPath>
			
				<linearGradient id="SVGID_24_" gradientUnits="userSpaceOnUse" x1="-812.6182" y1="182.9085" x2="-811.8986" y2="182.9085" gradientTransform="matrix(0 74.0796 -74.0796 0 13641.8613 60269.0781)">
				<stop  offset="0" style="stop-color:#DABF8D"/>
				<stop  offset="1" style="stop-color:#AE905D"/>
			</linearGradient>
			<rect x="91.9" y="110.7" class="st7" width="0.3" height="3.3"/>
		</g>
	</g>
	<g>
		<g>
			<defs>
				<path id="SVGID_25_" d="M89.3,111.7v3c0.1,0,0.2,0,0.3,0v-3C89.4,111.6,89.4,111.6,89.3,111.7"/>
			</defs>
			<clipPath id="SVGID_26_">
				<use xlink:href="#SVGID_25_"  style="overflow:visible;"/>
			</clipPath>
			
				<linearGradient id="SVGID_27_" gradientUnits="userSpaceOnUse" x1="-812.6184" y1="182.8949" x2="-811.8988" y2="182.8949" gradientTransform="matrix(0 74.0799 -74.0799 0 13638.2383 60269.2891)">
				<stop  offset="0" style="stop-color:#DABF8D"/>
				<stop  offset="1" style="stop-color:#AE905D"/>
			</linearGradient>
			<rect x="89.3" y="111.6" class="st8" width="0.3" height="3"/>
		</g>
	</g>
	<g>
		<g>
			<defs>
				<path id="SVGID_28_" d="M94.1,113.5c0.1,0,0.2,0,0.3-0.1v-2.8c-0.1,0-0.2,0-0.3,0V113.5z"/>
			</defs>
			<clipPath id="SVGID_29_">
				<use xlink:href="#SVGID_28_"  style="overflow:visible;"/>
			</clipPath>
			
				<linearGradient id="SVGID_30_" gradientUnits="userSpaceOnUse" x1="-812.6184" y1="182.9201" x2="-811.8988" y2="182.9201" gradientTransform="matrix(0 74.0799 -74.0799 0 13644.9238 60269.2891)">
				<stop  offset="0" style="stop-color:#DABF8D"/>
				<stop  offset="1" style="stop-color:#AE905D"/>
			</linearGradient>
			<rect x="94.1" y="110.6" class="st9" width="0.3" height="2.9"/>
		</g>
	</g>
	<g>
		<g>
			<defs>
				<path id="SVGID_31_" d="M89.8,111.5v3c0.1,0,0.2,0,0.3-0.1v-3.1C90,111.4,89.9,111.4,89.8,111.5"/>
			</defs>
			<clipPath id="SVGID_32_">
				<use xlink:href="#SVGID_31_"  style="overflow:visible;"/>
			</clipPath>
			
				<linearGradient id="SVGID_33_" gradientUnits="userSpaceOnUse" x1="-812.6183" y1="182.8976" x2="-811.8989" y2="182.8976" gradientTransform="matrix(0 74.0794 -74.0794 0 13638.8887 60268.8711)">
				<stop  offset="0" style="stop-color:#DABF8D"/>
				<stop  offset="1" style="stop-color:#AE905D"/>
			</linearGradient>
			<rect x="89.8" y="111.4" class="st10" width="0.3" height="3.1"/>
		</g>
	</g>
	<g>
		<g>
			<defs>
				<path id="SVGID_34_" d="M95.2,112.7c0.1-0.1,0.2-0.2,0.3-0.2V111c-0.1,0-0.2-0.1-0.3-0.1V112.7z"/>
			</defs>
			<clipPath id="SVGID_35_">
				<use xlink:href="#SVGID_34_"  style="overflow:visible;"/>
			</clipPath>
			
				<linearGradient id="SVGID_36_" gradientUnits="userSpaceOnUse" x1="-812.6183" y1="182.9256" x2="-811.8988" y2="182.9256" gradientTransform="matrix(0 74.0792 -74.0792 0 13646.2705 60268.7148)">
				<stop  offset="0" style="stop-color:#DABF8D"/>
				<stop  offset="1" style="stop-color:#AE905D"/>
			</linearGradient>
			<rect x="95.2" y="110.9" class="st11" width="0.3" height="1.9"/>
		</g>
	</g>
	<g>
		<g>
			<defs>
				<path id="SVGID_37_" d="M93,110.6v3.2c0.1,0,0.2,0,0.3-0.1v-3.1C93.2,110.6,93.1,110.6,93,110.6"/>
			</defs>
			<clipPath id="SVGID_38_">
				<use xlink:href="#SVGID_37_"  style="overflow:visible;"/>
			</clipPath>
			
				<linearGradient id="SVGID_39_" gradientUnits="userSpaceOnUse" x1="-812.6183" y1="182.9145" x2="-811.8987" y2="182.9145" gradientTransform="matrix(0 74.0798 -74.0798 0 13643.4121 60269.2148)">
				<stop  offset="0" style="stop-color:#DABF8D"/>
				<stop  offset="1" style="stop-color:#AE905D"/>
			</linearGradient>
			<rect x="93" y="110.6" class="st12" width="0.3" height="3.2"/>
		</g>
	</g>
	<g>
		<g>
			<defs>
				<path id="SVGID_40_" d="M93.6,113.7c0.1,0,0.2,0,0.3-0.1v-3c-0.1,0-0.2,0-0.3,0V113.7z"/>
			</defs>
			<clipPath id="SVGID_41_">
				<use xlink:href="#SVGID_40_"  style="overflow:visible;"/>
			</clipPath>
			
				<linearGradient id="SVGID_42_" gradientUnits="userSpaceOnUse" x1="-812.6184" y1="182.9174" x2="-811.8989" y2="182.9174" gradientTransform="matrix(0 74.0796 -74.0796 0 13644.1289 60269.0273)">
				<stop  offset="0" style="stop-color:#DABF8D"/>
				<stop  offset="1" style="stop-color:#AE905D"/>
			</linearGradient>
			<rect x="93.6" y="110.6" class="st13" width="0.3" height="3.1"/>
		</g>
	</g>
	<g>
		<g>
			<defs>
				<path id="SVGID_43_" d="M95.7,112.3c0.1-0.1,0.2-0.2,0.3-0.3v-0.9c-0.1,0-0.2-0.1-0.3-0.1V112.3z"/>
			</defs>
			<clipPath id="SVGID_44_">
				<use xlink:href="#SVGID_43_"  style="overflow:visible;"/>
			</clipPath>
			
				<linearGradient id="SVGID_45_" gradientUnits="userSpaceOnUse" x1="-812.6183" y1="182.9285" x2="-811.8987" y2="182.9285" gradientTransform="matrix(0 74.08 -74.08 0 13647.1562 60269.3867)">
				<stop  offset="0" style="stop-color:#DABF8D"/>
				<stop  offset="1" style="stop-color:#AE905D"/>
			</linearGradient>
			<rect x="95.7" y="111.1" class="st14" width="0.3" height="1.2"/>
		</g>
	</g>
	<g>
		<g>
			<defs>
				<path id="SVGID_46_" d="M94.6,113.4C94.6,113.3,94.7,113.3,94.6,113.4c0.1-0.2,0.2-0.3,0.3-0.3v-2.2c-0.1,0-0.2,0-0.3-0.1V113.4
					z"/>
			</defs>
			<clipPath id="SVGID_47_">
				<use xlink:href="#SVGID_46_"  style="overflow:visible;"/>
			</clipPath>
			
				<linearGradient id="SVGID_48_" gradientUnits="userSpaceOnUse" x1="-812.6183" y1="182.9228" x2="-811.8987" y2="182.9228" gradientTransform="matrix(0 74.0797 -74.0797 0 13645.6133 60269.1367)">
				<stop  offset="0" style="stop-color:#DABF8D"/>
				<stop  offset="1" style="stop-color:#AE905D"/>
			</linearGradient>
			<rect x="94.6" y="110.7" class="st15" width="0.3" height="2.6"/>
		</g>
	</g>
	<g>
		<g>
			<defs>
				<path id="SVGID_49_" d="M90.3,111.3v3.1c0.1,0,0.2,0,0.3-0.1v-3.2C90.5,111.2,90.4,111.2,90.3,111.3"/>
			</defs>
			<clipPath id="SVGID_50_">
				<use xlink:href="#SVGID_49_"  style="overflow:visible;"/>
			</clipPath>
			
				<linearGradient id="SVGID_51_" gradientUnits="userSpaceOnUse" x1="-812.6183" y1="182.9006" x2="-811.8989" y2="182.9006" gradientTransform="matrix(0 74.0795 -74.0795 0 13639.6543 60268.9492)">
				<stop  offset="0" style="stop-color:#DABF8D"/>
				<stop  offset="1" style="stop-color:#AE905D"/>
			</linearGradient>
			<rect x="90.3" y="111.2" class="st16" width="0.3" height="3.2"/>
		</g>
	</g>
	<g>
		<g>
			<defs>
				<path id="SVGID_52_" d="M96.2,111.7c0.1-0.1,0.1-0.2,0.2-0.3l-0.1-0.1c0,0,0,0-0.1,0L96.2,111.7L96.2,111.7z"/>
			</defs>
			<clipPath id="SVGID_53_">
				<use xlink:href="#SVGID_52_"  style="overflow:visible;"/>
			</clipPath>
			
				<linearGradient id="SVGID_54_" gradientUnits="userSpaceOnUse" x1="-812.6187" y1="182.9316" x2="-811.899" y2="182.9316" gradientTransform="matrix(0 74.0828 -74.0828 0 13648.3857 60271.6562)">
				<stop  offset="0" style="stop-color:#DABF8D"/>
				<stop  offset="1" style="stop-color:#AE905D"/>
			</linearGradient>
			<rect x="96.2" y="111.3" class="st17" width="0.2" height="0.4"/>
		</g>
	</g>
	<g>
		<g>
			<defs>
				<path id="SVGID_55_" d="M90.9,111.1v3.2c0,0,0.1,0,0.1,0c0.1,0,0.1,0,0.2,0V111C91.1,111,91,111.1,90.9,111.1"/>
			</defs>
			<clipPath id="SVGID_56_">
				<use xlink:href="#SVGID_55_"  style="overflow:visible;"/>
			</clipPath>
			
				<linearGradient id="SVGID_57_" gradientUnits="userSpaceOnUse" x1="-812.6182" y1="182.9028" x2="-811.8986" y2="182.9028" gradientTransform="matrix(0 74.0798 -74.0798 0 13640.4141 60269.2461)">
				<stop  offset="0" style="stop-color:#DABF8D"/>
				<stop  offset="1" style="stop-color:#AE905D"/>
			</linearGradient>
			<rect x="90.9" y="111" class="st18" width="0.3" height="3.3"/>
		</g>
	</g>
	<g>
		<g>
			<defs>
				<path id="SVGID_58_" d="M92.5,110.7v3.2c0,0,0.1,0,0.1,0c0,0,0.1,0,0.1,0v-3.2C92.7,110.6,92.6,110.7,92.5,110.7"/>
			</defs>
			<clipPath id="SVGID_59_">
				<use xlink:href="#SVGID_58_"  style="overflow:visible;"/>
			</clipPath>
			
				<linearGradient id="SVGID_60_" gradientUnits="userSpaceOnUse" x1="-812.6185" y1="182.9118" x2="-811.8989" y2="182.9118" gradientTransform="matrix(0 74.0798 -74.0798 0 13642.6816 60269.1953)">
				<stop  offset="0" style="stop-color:#DABF8D"/>
				<stop  offset="1" style="stop-color:#AE905D"/>
			</linearGradient>
			<rect x="92.5" y="110.6" class="st19" width="0.3" height="3.3"/>
		</g>
	</g>
	<g>
		<g>
			<defs>
				<path id="SVGID_61_" d="M86.6,114.1v0.7c0.1,0,0.2,0,0.3,0v-1C86.8,113.8,86.7,114,86.6,114.1"/>
			</defs>
			<clipPath id="SVGID_62_">
				<use xlink:href="#SVGID_61_"  style="overflow:visible;"/>
			</clipPath>
			
				<linearGradient id="SVGID_63_" gradientUnits="userSpaceOnUse" x1="-812.6181" y1="182.8804" x2="-811.8986" y2="182.8804" gradientTransform="matrix(0 74.0795 -74.0795 0 13634.418 60268.9922)">
				<stop  offset="0" style="stop-color:#DABF8D"/>
				<stop  offset="1" style="stop-color:#AE905D"/>
			</linearGradient>
			<rect x="86.6" y="113.7" class="st20" width="0.3" height="1"/>
		</g>
	</g>
	<g>
		<g>
			<defs>
				<path id="SVGID_64_" d="M87.7,112.7v2c0.1,0,0.2,0,0.3,0v-2.3C87.8,112.5,87.8,112.6,87.7,112.7"/>
			</defs>
			<clipPath id="SVGID_65_">
				<use xlink:href="#SVGID_64_"  style="overflow:visible;"/>
			</clipPath>
			
				<linearGradient id="SVGID_66_" gradientUnits="userSpaceOnUse" x1="-812.6184" y1="182.8865" x2="-811.8988" y2="182.8865" gradientTransform="matrix(0 74.0798 -74.0798 0 13635.9922 60269.2031)">
				<stop  offset="0" style="stop-color:#DABF8D"/>
				<stop  offset="1" style="stop-color:#AE905D"/>
			</linearGradient>
			<rect x="87.7" y="112.5" class="st21" width="0.3" height="2.3"/>
		</g>
	</g>
	<g>
		<g>
			<defs>
				<path id="SVGID_67_" d="M87.1,113.3v1.4c0.1,0,0.2,0,0.3,0V113C87.3,113.1,87.2,113.2,87.1,113.3"/>
			</defs>
			<clipPath id="SVGID_68_">
				<use xlink:href="#SVGID_67_"  style="overflow:visible;"/>
			</clipPath>
			
				<linearGradient id="SVGID_69_" gradientUnits="userSpaceOnUse" x1="-812.6183" y1="182.8832" x2="-811.8987" y2="182.8832" gradientTransform="matrix(0 74.0796 -74.0796 0 13635.1895 60269.0625)">
				<stop  offset="0" style="stop-color:#DABF8D"/>
				<stop  offset="1" style="stop-color:#AE905D"/>
			</linearGradient>
			<rect x="87.1" y="113" class="st22" width="0.3" height="1.7"/>
		</g>
	</g>
	<g>
		<g>
			<defs>
				<path id="SVGID_70_" d="M86.2,114.7L86.2,114.7c0.1,0,0.1,0,0.1,0v-0.2C86.3,114.6,86.3,114.7,86.2,114.7"/>
			</defs>
			<clipPath id="SVGID_71_">
				<use xlink:href="#SVGID_70_"  style="overflow:visible;"/>
			</clipPath>
			
				<linearGradient id="SVGID_72_" gradientUnits="userSpaceOnUse" x1="-812.6178" y1="182.8777" x2="-811.8984" y2="182.8777" gradientTransform="matrix(0 74.0751 -74.0751 0 13632.9561 60265.3594)">
				<stop  offset="0" style="stop-color:#DABF8D"/>
				<stop  offset="1" style="stop-color:#AE905D"/>
			</linearGradient>
			<rect x="86.2" y="114.5" class="st23" width="0.1" height="0.2"/>
		</g>
	</g>
	<g>
		<g>
			<defs>
				<path id="SVGID_73_" d="M90.2,90.1c-0.7,0.7-0.2,1.5-0.2,1.5l-0.2,0.8c0-0.4,0-0.7-0.2-1c0,0,0,0.4-0.4,0.2
					c-0.4-0.2-1.2-0.8-1.6-1.4c-0.1,0.5-0.4,1.5-1,2.1c0,0-0.1,0.1-0.1,0.1c0.6,0.4,1.7,1,2.5,1c1.1,0.1,0.4,0.5,0.4,0.5
					c0.3,0.1,0.6,0.1,0.8-0.1c0,0,0.9-0.8,1.1-1.3c0.1-0.4,0.4-0.8,0.7-0.6c0.1-0.3-0.3-0.8-1.2-0.4c0.2-0.3,0.5-0.6,1-0.5
					c0,0-0.3-1.1-1.2-0.5c0,0,0-0.6,0.7-0.6c0,0-0.2-0.1-0.5-0.1C90.7,89.8,90.5,89.8,90.2,90.1"/>
			</defs>
			<clipPath id="SVGID_74_">
				<use xlink:href="#SVGID_73_"  style="overflow:visible;"/>
			</clipPath>
			
				<linearGradient id="SVGID_75_" gradientUnits="userSpaceOnUse" x1="-812.6249" y1="182.8938" x2="-811.9053" y2="182.8938" gradientTransform="matrix(0 74.0799 -74.0799 0 13638.0625 60270.9805)">
				<stop  offset="0" style="stop-color:#DABF8D"/>
				<stop  offset="1" style="stop-color:#AE905D"/>
			</linearGradient>
			<rect x="86.5" y="89.8" class="st24" width="5.6" height="4.2"/>
		</g>
	</g>
	<g>
		<g>
			<defs>
				<path id="SVGID_76_" d="M84.6,95c-1.1,0.8-1.9,1.7-2.2,3.3c0,0.1,0,0.2-0.1,0.3c0.4,0,0.8-0.1,0.8-0.1l-0.2,0.2
					c0.8,0.2,1.6-0.6,1.6-0.6c-0.1,0.5-0.5,0.6-0.5,0.6c0,0-0.2,1.6-0.3,2.3c-0.2,0.7,0.8,1.1,0.8,1.1c-0.5-0.3,0.3-1,0.2-0.8
					c-0.1,0.2,0,0.4,0.4,0.6c0.2,0.1,0.4,0,0.5-0.1c0.1-0.1,0.2-0.2,0.2-0.1c0,0,0,0,0,0c0,0.2-0.1,0.4-0.1,0.4
					c0.2,0,0.5-0.1,0.7-0.4s1-0.1,1-0.1c0.3,0.4,0.6,0.3,0.6,0.3c-0.1-0.3,0.2-0.5,0.2-0.5c0.1,0.1,0,0.2,0.5,0.3
					c0.5,0.1,0.4,0,0.8-0.4s0.8,0.2,0.8,0.2c0.4-0.4-0.3-0.7-0.3-0.7c0.5-0.3,0.8,0.2,0.8,0.2c0.4-0.5-0.3-0.9-0.3-0.9
					c0.6-0.4,0.5,0.2,0.5,0.2c0.4-0.9-0.5-1.1-1-1.2c-0.2,0-0.8,0.2-1.2,0.4c-0.4,0.2-0.8,0.4-0.8,0.4c0,0-1.9-0.1-1.9-0.1
					s1.9-4,0.5-4.6C86.2,95,85.5,95,85,95C84.8,95,84.7,95,84.6,95"/>
			</defs>
			<clipPath id="SVGID_77_">
				<use xlink:href="#SVGID_76_"  style="overflow:visible;"/>
			</clipPath>
			
				<linearGradient id="SVGID_78_" gradientUnits="userSpaceOnUse" x1="-812.6211" y1="182.8782" x2="-811.9013" y2="182.8782" gradientTransform="matrix(0 74.0796 -74.0796 0 13634.2891 60269.7266)">
				<stop  offset="0" style="stop-color:#DABF8D"/>
				<stop  offset="1" style="stop-color:#AE905D"/>
			</linearGradient>
			<rect x="82.3" y="95" class="st25" width="8.9" height="7.1"/>
		</g>
	</g>
	<g>
		<g>
			<defs>
				<path id="SVGID_79_" d="M80.5,79.1c2.6-1-0.4,0.2-1.6,2.3c0.4-0.3,0.8-0.3,0.9-0.4c-2.4,2.2-0.6,6.4-0.6,6.3
					c0-0.4,0.3-0.9,0.3-0.9c0.2,0.5,0.9,1.3,1.3,1.6c0.1,0.9,0.3,3.1-0.6,4.3c-1.2,1.3-2.1,1.9-3.4,4.4c-1.3,2.5-5.6,1.8-6.3-1
					c-0.7-3.1,1.4-6.6,4.2-5.3c0.4,0.2,0.9,1,0.4,1.7c-0.2,0.3-0.9,0.8-0.4,1.5c0,0-0.2-0.6,0.5-0.7c0,0,0.8,0.5-0.1,1.2
					c-1,0.8-1.1,2,0.2,2.1c0,0-1.1-0.3-0.4-1c0.7-0.6,1.5-1.1,1.3-1.8c0,0,0.3,0.1,0.3,0.4c0.1,0.4,0.1,0.8,0.3,1
					c0,0-0.3-0.2,0.2-1.1c0.3-0.5,0-1.1-0.5-1c-0.2,0.1-0.3-0.1-0.2-0.4c0.1-0.2,0.4-0.4,0.7-0.4c0,0,0.5,0.1,0.6,0.6
					c0,0,0.2-0.9-0.6-1.3c-0.4-0.2-0.6-0.1-0.8-0.1c-0.2,0.1-0.2,0.1-0.1-0.2c0.2-0.5-0.2-1-0.7-1.1c0,0,0.5,0.1,0.4,0.5
					c-0.1,0.2-0.1,0.6-0.1,0.7c-0.1-0.2-0.2-0.6-0.7-1.1c-0.6-0.5-1.9-0.9-3.3-0.2c-2.1,1-3.5,5.7-0.9,8c1.2,1.1,4,1.8,6.1,0.3
					l-0.6,0.2c0,0,1.1-0.7,1.8-2.1c-0.4,0.8-1.1,2.7-0.7,4.1c0.5,1.8,0.3,1.7,0.1,2.2c0,0,0.1-0.9-0.2-1.6c0,0,0.1,1.9-1,2.7
					s0.5,1.8-0.2,3.1l-0.2,0.5l0.5-0.3c0,0-0.5,0.6-0.4,1c0,0,0.1-0.3,0.4-0.2c0,0-0.5,0.7,0.1,0.9c0.6,0.2,1.8,0.3,2,0.3
					c0.1,0-0.5-0.4,0-0.7c0,0-0.2,0.8,0.3,0.8c0.5,0,0.8-0.5,0.8,0c0,0,0.2-0.6-0.2-0.8c0.2,0.1,0.5,0.3,0.3,0.7
					c0,0,0.5-1.1-0.9-1.1l-0.5-0.3c0,0-0.1-0.1-0.4,0.1c0,0-0.1,0-0.1-0.3c0.1-0.3,0-2.5,0-2.5l0.1-0.6l0,0.5
					c0.3-0.4,1.2-1.3,1.8-1.7c0.7-0.4,1.9-2.3,2.4-4.3c0.5-2.1,1.6-3.1,3.2-4.1c1.6-1,1.1-2,1.8-2.9c0.7-0.8,1-2.2,1-2.2
					c0-0.3,0.4-0.7,1-0.9c0,0,1.7-0.4,2.8-1.4c0.7-0.7,1.8-1.5,1.8-1.5s0.4,0.3,1.3-0.2c0.7-0.4,1.2-0.6,1.3-0.2c0,0,0.2-1.2-1-0.9
					c0.3-0.2,1.1-0.5,1.1,0.1c0,0,0.3-1.4-1.3-1.1c0,0,0.4-0.5,1.1,0c0,0,0.3-1-0.9-0.8l0.3-0.1c0,0-0.6-0.3-1.3,0.1
					c0,0-0.4,0-0.7-0.1c-0.2-0.1-1,1.3-1,1.3S91.6,85,91,85.3c-0.1,0,0,0.3-1.2,0.4c-0.6,0.1-1.2,0.5-1.2,0.5
					c-0.5,0.1-0.4-0.1-0.8-0.2c-0.4-0.1-0.3-0.4-0.4-0.6c-0.2-0.6-0.4-0.7-0.1-1.3c0.4,0,0.9-0.1,1.2-0.1c0,0,0.9-0.1,1-0.7
					c0.1-0.6,0-1,0-1c0,0.2-0.8,0.7-1.2,0.3c-0.7-0.7,0.8-1,1.1-0.9c0.3,0,0.2,0.4,0.2,0.4l0.4-0.3c0,0,0.3-0.7,0.4-0.9
					c0.1-0.2,0-0.4,0-0.4c-1.1-0.4-1.7-0.8-2.8-1.5c0.2-0.7-0.8-1.4-0.8-1.4c0.3,0.5,0.2,0.7,0.2,0.7c-0.1-0.4-1.3-0.8-1.3-0.8
					c-0.5-0.2-1-0.2-1.5-0.2C81.8,77.3,80.5,79.1,80.5,79.1"/>
			</defs>
			<clipPath id="SVGID_80_">
				<use xlink:href="#SVGID_79_"  style="overflow:visible;"/>
			</clipPath>
			
				<linearGradient id="SVGID_81_" gradientUnits="userSpaceOnUse" x1="-812.6246" y1="182.8672" x2="-811.9049" y2="182.8672" gradientTransform="matrix(0 74.0793 -74.0793 0 13629.3594 60270.5117)">
				<stop  offset="0" style="stop-color:#DABF8D"/>
				<stop  offset="1" style="stop-color:#AE905D"/>
			</linearGradient>
			<rect x="68.4" y="77.3" class="st26" width="28.5" height="31.9"/>
		</g>
	</g>
	<g>
		<g>
			<defs>
				<path id="SVGID_82_" d="M123.4,92.9c0.7,0,0.7,0.6,0.7,0.6c-1-0.6-1.2,0.5-1.2,0.5c0.5-0.2,0.8,0.2,1,0.5
					c-0.9-0.4-1.2,0.1-1.2,0.4c0.3-0.2,0.6,0.3,0.7,0.6c0.2,0.4,1.1,1.3,1.1,1.3c0.2,0.2,0.5,0.2,0.8,0.1c0,0-0.6-0.4,0.4-0.5
					c0.7-0.1,1.9-0.7,2.5-1c0,0,0-0.1-0.1-0.1c-0.6-0.7-0.9-1.6-1-2.1c-0.4,0.6-1.2,1.2-1.6,1.4c-0.5,0.3-0.4-0.2-0.4-0.2
					c-0.2,0.2-0.2,0.5-0.2,1l-0.2-0.8c0,0,0.5-0.8-0.2-1.5c-0.2-0.3-0.5-0.4-0.7-0.4C123.6,92.7,123.4,92.9,123.4,92.9"/>
			</defs>
			<clipPath id="SVGID_83_">
				<use xlink:href="#SVGID_82_"  style="overflow:visible;"/>
			</clipPath>
			
				<linearGradient id="SVGID_84_" gradientUnits="userSpaceOnUse" x1="-812.6404" y1="199.3131" x2="-811.9207" y2="199.3131" gradientTransform="matrix(0 74.0799 74.0799 0 -14639.5859 60275.0938)">
				<stop  offset="0" style="stop-color:#DABF8D"/>
				<stop  offset="1" style="stop-color:#AE905D"/>
			</linearGradient>
			<rect x="122.7" y="92.7" class="st27" width="5.6" height="4.2"/>
		</g>
	</g>
	<g>
		<g>
			<defs>
				<path id="SVGID_85_" d="M128.3,98.1c-1.4,0.5,0.5,4.6,0.5,4.6s-1.9,0.1-1.9,0.1c0,0-0.4-0.2-0.8-0.4c-0.5-0.2-1-0.4-1.2-0.4
					c-0.5,0.1-1.4,0.3-1,1.2c0,0-0.1-0.6,0.5-0.2c0,0-0.7,0.4-0.3,0.9c0,0,0.3-0.6,0.8-0.2c0,0-0.7,0.2-0.3,0.7c0,0,0.4-0.5,0.8-0.2
					s0.3,0.4,0.8,0.4c0.5-0.1,0.4-0.1,0.5-0.3c0,0,0.3,0.3,0.2,0.5c0,0,0.3,0.1,0.6-0.3c0,0,0.8-0.2,1,0.1c0.2,0.3,0.4,0.3,0.7,0.4
					c0,0-0.1-0.2-0.1-0.4c0,0,0,0,0,0c0-0.1,0.1,0,0.2,0.1c0.1,0.1,0.3,0.2,0.5,0.1c0.4-0.2,0.5-0.4,0.4-0.6
					c-0.1-0.2,0.7,0.5,0.2,0.8c0,0,0.9-0.4,0.8-1.1c-0.2-0.7-0.3-2.3-0.3-2.3c0,0-0.4-0.1-0.5-0.6c0,0,0.8,0.8,1.6,0.6l-0.2-0.2
					c0,0,0.4,0.1,0.8,0.1c0-0.1-0.1-0.2-0.1-0.3c-0.4-1.6-1.2-2.5-2.2-3.3c-0.1,0-0.2,0-0.4,0C129.3,98,128.7,98,128.3,98.1"/>
			</defs>
			<clipPath id="SVGID_86_">
				<use xlink:href="#SVGID_85_"  style="overflow:visible;"/>
			</clipPath>
			
				<linearGradient id="SVGID_87_" gradientUnits="userSpaceOnUse" x1="-812.6367" y1="199.2975" x2="-811.9168" y2="199.2975" gradientTransform="matrix(0 74.0796 74.0796 0 -14635.8105 60273.8398)">
				<stop  offset="0" style="stop-color:#DABF8D"/>
				<stop  offset="1" style="stop-color:#AE905D"/>
			</linearGradient>
			<rect x="123.6" y="98" class="st28" width="8.9" height="7.1"/>
		</g>
	</g>
	<g>
		<g>
			<defs>
				<path id="SVGID_88_" d="M129.2,80.5c0,0-1.2,0.4-1.3,0.8c0,0-0.1-0.2,0.2-0.7c0,0-1,0.7-0.8,1.4c-1.1,0.7-1.7,1.1-2.8,1.5
					c0,0-0.1,0.2,0,0.4c0.1,0.2,0.4,0.9,0.4,0.9l0.4,0.3c0,0-0.1-0.3,0.2-0.4c0.3,0,1.8,0.2,1.1,0.9c-0.4,0.4-1.2-0.2-1.2-0.3
					c0,0-0.1,0.4,0,1c0.1,0.6,1,0.7,1,0.7c0.3,0,0.8,0,1.2,0.1c0.3,0.6,0.1,0.7-0.1,1.3c-0.1,0.3,0,0.6-0.4,0.6
					c-0.4,0.1-0.3,0.2-0.8,0.2c0,0-0.5-0.3-1.2-0.5c-1.2-0.1-1.1-0.4-1.2-0.4c-0.6-0.4-1.8-1.2-1.8-1.2s-0.8-1.3-1-1.3
					c-0.2,0.1-0.7,0.1-0.7,0.1c-0.7-0.5-1.3-0.1-1.3-0.1l0.3,0.1c-1.1-0.2-0.9,0.8-0.9,0.8c0.7-0.4,1.1,0,1.1,0
					c-1.6-0.3-1.3,1.1-1.3,1.1c0.1-0.5,0.8-0.3,1.1-0.1c-1.2-0.4-1,0.9-1,0.9c0.1-0.5,0.6-0.2,1.3,0.2c0.9,0.4,1.3,0.2,1.3,0.2
					s1.1,0.7,1.8,1.5c1.1,1.1,2.8,1.4,2.8,1.4c0.6,0.1,1,0.5,1,0.9c0,0,0.2,1.4,1,2.2s0.2,1.8,1.8,2.9c1.6,1,2.7,2.1,3.2,4.1
					c0.5,2.1,1.7,3.9,2.4,4.3c0.6,0.3,1.5,1.3,1.8,1.7l0-0.5l0.1,0.6c0,0-0.1,2.2,0,2.5c0.1,0.3-0.1,0.3-0.1,0.3
					c-0.3-0.2-0.4-0.1-0.4-0.1l-0.5,0.3c-1.4,0-0.9,1.1-0.9,1.1c-0.1-0.4,0.1-0.6,0.3-0.7c-0.4,0.2-0.2,0.8-0.2,0.8
					c0-0.5,0.3,0,0.8,0c0.5,0,0.3-0.8,0.3-0.8c0.6,0.3-0.1,0.7,0,0.7c0.1,0,1.4-0.1,2-0.3c0.6-0.2,0.1-0.9,0.1-0.9
					c0.2,0,0.4,0.2,0.4,0.2c0.1-0.4-0.4-1-0.4-1l0.5,0.3l-0.2-0.5c-0.6-1.2,1-2.3-0.2-3.1s-1-2.7-1-2.7c-0.2,0.7-0.2,1.6-0.2,1.6
					c-0.2-0.5-0.4-0.5,0.1-2.2c0.4-1.3-0.4-3.2-0.7-4.1c0.7,1.3,1.8,2.1,1.8,2.1l-0.6-0.2c2.1,1.5,5,0.8,6.1-0.3
					c2.6-2.3,1.2-7-0.9-8c-1.3-0.6-2.7-0.2-3.3,0.2c-0.5,0.4-0.6,0.9-0.7,1.1c0-0.1,0-0.5-0.1-0.7c-0.1-0.4,0.4-0.5,0.4-0.5
					c-0.5,0-0.9,0.5-0.7,1.1c0.1,0.3,0.1,0.2-0.1,0.2c-0.2,0-0.4-0.1-0.8,0.1c-0.8,0.4-0.6,1.3-0.6,1.3c0.1-0.5,0.6-0.6,0.6-0.6
					c0.3-0.1,0.6,0.1,0.7,0.4c0.1,0.2,0.1,0.4-0.2,0.4c-0.5-0.2-0.7,0.5-0.5,1c0.5,0.9,0.2,1.1,0.2,1.1c0.3-0.1,0.3-0.6,0.3-1
					c0.1-0.4,0.3-0.4,0.3-0.4c-0.3,0.8,0.6,1.2,1.3,1.8c0.7,0.6-0.4,1-0.4,1c1.3-0.1,1.2-1.3,0.2-2.1c-0.9-0.7-0.1-1.2-0.1-1.2
					c0.7,0.1,0.5,0.7,0.5,0.7c0.5-0.8-0.2-1.2-0.4-1.5c-0.5-0.7,0-1.5,0.4-1.7c2.7-1.4,4.9,2.1,4.2,5.3c-0.7,2.8-5,3.5-6.3,1
					c-1.2-2.5-2.2-3.1-3.4-4.4c-1-1.1-0.8-3.3-0.6-4.3c0.4-0.3,1-1.1,1.3-1.6c0,0,0.3,0.5,0.3,0.9c0,0.1,1.7-4.1-0.6-6.3
					c0.1,0.1,0.5,0.1,0.9,0.4c-1.2-2.1-4.1-3.3-1.6-2.3c0,0-1.3-1.8-3.6-1.8C130.3,80.3,129.8,80.3,129.2,80.5"/>
			</defs>
			<clipPath id="SVGID_89_">
				<use xlink:href="#SVGID_88_"  style="overflow:visible;"/>
			</clipPath>
			
				<linearGradient id="SVGID_90_" gradientUnits="userSpaceOnUse" x1="-812.6402" y1="199.2868" x2="-811.9205" y2="199.2868" gradientTransform="matrix(0 74.0793 74.0793 0 -14630.8828 60274.625)">
				<stop  offset="0" style="stop-color:#DABF8D"/>
				<stop  offset="1" style="stop-color:#AE905D"/>
			</linearGradient>
			<rect x="117.9" y="80.3" class="st29" width="28.5" height="31.9"/>
		</g>
	</g>
	<g>
		<g>
			<defs>
				<path id="SVGID_91_" d="M117.8,79.8c-0.2-0.1-0.2-0.2-0.2-0.3c0.1-0.1,0.2-0.2,0.4-0.2c0.2,0.1,0.2,0.2,0.2,0.3
					C118.1,79.7,118,79.8,117.8,79.8C117.8,79.8,117.8,79.8,117.8,79.8 M98.6,78.6c0-0.1,0-0.3,0.2-0.3c0.2,0,0.3,0.1,0.4,0.2
					c0,0.1,0,0.3-0.2,0.3c0,0,0,0-0.1,0C98.8,78.8,98.7,78.7,98.6,78.6 M107.9,77.1c0-0.3,0.3-0.5,0.7-0.5c0.4,0,0.6,0.3,0.6,0.6
					c0,0.3-0.3,0.5-0.7,0.5C108.1,77.6,107.8,77.4,107.9,77.1 M115.6,80.2c-0.3-0.1-0.5-0.2-0.6-0.4c-0.1-0.2-0.1-0.4,0.1-0.6
					c1.7-2.1,1.8-4.8,1.7-5.9c0-0.1,0-0.2,0.1-0.2c0.1-0.1,0.2-0.1,0.3-0.1c2.1,0.1,4.1,0.9,4.7,2.6c0.6,1.7-0.8,4-2,5.4
					c-0.2,0.3-0.6,0.4-1,0.2c-0.3-0.1-0.6-0.2-1-0.3c-0.3-0.1-0.3-0.4-0.2-0.5c0.1-0.4,0.5-0.2,0.5,0c0,0.4,0.8,0.7,0.8,0.7
					c0-0.2,0-0.3,0-0.3c0.6,0,1-0.2,1-0.2c0-0.5-0.4-0.8-0.4-0.8c0.1,0,0.1-0.1,0.2-0.2c-0.6-0.1-0.6,0-0.9,0
					c-0.4,0.1-0.4-0.2-0.4-0.2c0-0.3,0.5,0.2,1-0.8c-0.2,0-0.3,0-0.4,0c0.2-0.3-0.2-0.9-0.2-1c-0.1,0-0.9,0.2-1,0.6
					c0,0-0.1-0.1-0.3-0.2c-0.4,1,0.4,0.9,0.1,1.1c0,0-0.3,0.2-0.5,0c-0.2-0.3-0.1-0.3-0.7-0.6c-0.1,0.1-0.1,0.2-0.1,0.3
					c0,0-0.6,0-1,0.4c0,0,0.1,0.5,0.5,0.7c0,0-0.1,0.1-0.2,0.2c0,0,0.7,0.2,1.1-0.1c0.2-0.1,0.6-0.1,0.3,0.3
					c-0.1,0.1-0.1,0.3-0.4,0.3C116.5,80.4,116.1,80.3,115.6,80.2 M96.7,79.6c-1-1.5-2.2-3.9-1.4-5.6c0.8-1.6,2.8-2.2,4.9-2.1
					c0.1,0,0.2,0,0.3,0.1c0.1,0.1,0.1,0.2,0.1,0.3c-0.2,1.1-0.4,3.9,1.1,6.1c0.1,0.2,0.1,0.4,0,0.6c-0.1,0.2-0.4,0.3-0.6,0.4
					c-0.5,0.1-0.9,0.1-1.3,0.2c-0.3-0.1-0.3-0.2-0.4-0.4c-0.2-0.4,0.2-0.4,0.4-0.3c0.4,0.3,1.1,0.2,1.1,0.2
					c-0.1-0.1-0.2-0.2-0.2-0.2c0.5-0.2,0.6-0.7,0.6-0.7c-0.3-0.4-0.9-0.5-0.9-0.5c0,0,0-0.2,0-0.3c-0.5,0.2-0.5,0.2-0.7,0.5
					c-0.2,0.3-0.5,0-0.5,0c-0.2-0.2,0.5-0.1,0.2-1.1c-0.2,0.1-0.3,0.2-0.3,0.2c0-0.3-0.8-0.6-0.9-0.7c-0.1,0.1-0.5,0.6-0.3,1
					c0,0-0.1,0-0.4,0c0.4,1,1,0.6,0.9,0.9c0,0,0,0.3-0.4,0.2c-0.3-0.1-0.4-0.2-0.9-0.1c0,0.1,0.1,0.2,0.1,0.2c0,0-0.5,0.3-0.5,0.8
					c0,0,0.4,0.3,1,0.4c0,0,0,0.1,0,0.3c0,0,0.7-0.2,0.8-0.6c0-0.2,0.4-0.3,0.5,0.1c0,0.1,0,0.4-0.3,0.5c-0.4,0.1-0.7,0.1-1,0.2
					c-0.1,0-0.1,0-0.2,0C97.2,80,96.9,79.9,96.7,79.6 M103.7,79c-2.1-1.8-2.4-5.2-1.4-7.6c0,0,0.5-0.9,5.3-2.2
					c0.2-0.1,0.5-0.1,0.7-0.2c0.4-0.2,0.8-0.1,1.2,0.1c0.2,0.1,0.4,0.2,0.7,0.3c4.7,1.8,5.1,2.7,5.1,2.7c0.8,2.5,0.1,5.8-2.2,7.4
					c-0.2,0.1-0.4,0.2-0.7,0.2c-0.9-0.1-1.9-0.3-2.9-0.3c-0.2-0.5-0.6-0.3-0.6-0.6c-0.1-0.8,0.7-0.7,0.9-0.3c0.4,0.8,2,1,2,1
					c-0.1-0.3-0.3-0.6-0.3-0.6c1.1-0.2,1.7-1,1.7-1c-0.3-1-1.4-1.4-1.4-1.4c0.1-0.1,0.2-0.3,0.2-0.5c-1.2,0-1.2,0.2-1.8,0.6
					c-0.6,0.4-0.9-0.3-0.9-0.3c-0.3-0.6,1.1,0.1,1.3-2c-0.5,0.1-0.6,0.2-0.7,0.2c0.2-0.7-1.1-1.6-1.2-1.8c-0.2,0.1-1.5,0.9-1.4,1.6
					c0,0-0.2-0.1-0.6-0.3c0,2.1,1.4,1.6,1.1,2.2c0,0-0.3,0.6-0.9,0.2c-0.6-0.4-0.5-0.6-1.7-0.7c-0.1,0.2,0,0.5,0.1,0.5
					c0,0-1.1,0.3-1.6,1.3c0,0,0.5,0.9,1.6,1.2c0,0-0.2,0.2-0.3,0.5c0,0,1.6,0,2.1-0.8c0.2-0.3,1-0.4,0.9,0.4
					c-0.1,0.3-0.5,0.1-0.7,0.5c-1,0-2,0-2.9,0c0,0,0,0,0,0C104.1,79.2,103.9,79.1,103.7,79 M108.7,66.3c0-0.2,0.2-0.3,0.4-0.3
					c0.2,0,0.4,0.2,0.4,0.4c0,0.2-0.2,0.3-0.4,0.3C108.8,66.6,108.6,66.5,108.7,66.3 M108.3,64.4c0,0-0.1-0.1-0.4-0.2
					c0,1.4,1,1.1,0.7,1.4c0,0-0.2,0.4-0.6,0.1c-0.4-0.3-0.4-0.4-1.1-0.5c0,0.1,0,0.3,0.1,0.4c0,0-0.7,0.2-1,0.8c0,0,0.3,0.6,1.1,0.8
					c0,0-0.1,0.1-0.2,0.3c0,0,1.1,0,1.4-0.5c0.1-0.2,0.7-0.3,0.6,0.3c0,0.1-0.1,0.2-0.2,0.3c-0.3,0.2-0.7,0.5-1.2,0.6
					c-0.2,0.1-0.5,0.1-0.7,0.2c0.1-0.1,0.1-0.2,0.1-0.3c0-0.4-0.3-0.7-0.8-0.7c-0.5,0-0.9,0.3-0.9,0.7c0,0.3,0.2,0.6,0.6,0.7
					c-0.5,0.1-0.9,0.3-1.4,0.5c0.1-0.1,0.1-0.2,0.1-0.4c0-0.4-0.3-0.7-0.8-0.7s-0.9,0.3-0.9,0.7s0.3,0.7,0.8,0.7
					c-0.5,0.2-0.9,0.4-1.2,0.6c0-0.1,0.1-0.1,0.1-0.2c0-0.4-0.3-0.7-0.8-0.7c-0.5,0-0.9,0.3-0.9,0.7c0,0.4,0.3,0.7,0.8,0.7
					c0.1,0,0.2,0,0.2,0c-0.1,0.1-0.2,0.1-0.2,0.2c-0.2,0.2-0.4,0.3-0.7,0.3c0,0-0.1,0-0.1,0c-0.4,0-0.8,0-1.4,0
					c0.2-0.1,0.4-0.3,0.4-0.6c0-0.4-0.3-0.7-0.8-0.7s-0.9,0.3-0.9,0.7c0,0.3,0.3,0.6,0.6,0.7c-0.5,0.1-1,0.2-1.5,0.3
					c0-0.1,0.1-0.2,0.1-0.3c0-0.4-0.3-0.7-0.8-0.7c-0.5,0-0.9,0.3-0.9,0.7c0,0.4,0.3,0.7,0.7,0.7c-0.4,0.2-0.7,0.4-1.1,0.7
					c0,0,0-0.1,0-0.1c0-0.4-0.3-0.7-0.8-0.7c-0.5,0-0.9,0.3-0.9,0.7c0,0.4,0.3,0.7,0.8,0.7c0.2,0,0.3,0,0.4-0.1
					c-0.2,0.2-0.3,0.5-0.4,0.7c0,0.1-0.1,0.2-0.1,0.3c-0.1-0.2-0.4-0.4-0.7-0.4c-0.5,0-0.9,0.3-0.9,0.7s0.3,0.7,0.8,0.7
					c0.2,0,0.5-0.1,0.6-0.2c0,0.3,0,0.7,0,1.1c-0.1-0.1-0.3-0.2-0.5-0.2c-0.5,0-0.9,0.3-0.9,0.7c0,0.4,0.3,0.7,0.8,0.7
					c0.3,0,0.6-0.1,0.8-0.3c0.1,0.3,0.2,0.7,0.3,1c-0.1-0.1-0.3-0.1-0.4-0.1c-0.5,0-0.9,0.3-0.9,0.7c0,0.4,0.3,0.7,0.8,0.7
					c0.4,0,0.7-0.2,0.9-0.5c0.2,0.4,0.4,0.7,0.6,1c-0.1,0-0.1,0-0.2,0c-0.5,0-0.9,0.3-0.9,0.7c0,0.4,0.3,0.7,0.8,0.7
					c0.4,0,0.8-0.2,0.9-0.5c0.1,0.2,0.3,0.3,0.4,0.5c0.2,0.3,0.6,0.4,1,0.3c1.5-0.4,5.6-1.2,11.2-1c7,0.4,11.6,2.3,11.6,2.3
					s0.3-0.3,0.8-0.9c0.1,0.3,0.4,0.6,0.8,0.6c0.5,0,0.9-0.3,0.9-0.7s-0.3-0.7-0.8-0.7c-0.1,0-0.1,0-0.2,0c0.2-0.3,0.5-0.6,0.7-1
					c0.1,0.3,0.4,0.6,0.8,0.6c0.5,0,0.9-0.3,0.9-0.7c0-0.4-0.3-0.7-0.8-0.7c-0.2,0-0.3,0-0.4,0.1c0.2-0.3,0.3-0.6,0.4-1
					c0.1,0.2,0.4,0.4,0.7,0.4c0.5,0,0.9-0.3,0.9-0.7s-0.3-0.7-0.8-0.7c-0.2,0-0.4,0-0.5,0.1c0.1-0.3,0.1-0.7,0.1-1
					c0.1,0.1,0.4,0.2,0.6,0.3c0.5,0,0.9-0.3,0.9-0.7s-0.3-0.7-0.8-0.7c-0.3,0-0.6,0.1-0.8,0.4c0-0.1-0.1-0.2-0.1-0.3
					c-0.1-0.3-0.2-0.5-0.4-0.8c0.1,0.1,0.3,0.1,0.4,0.1c0.5,0,0.9-0.3,0.9-0.7s-0.3-0.7-0.8-0.7c-0.5,0-0.9,0.3-0.9,0.7
					c0,0,0,0.1,0,0.1c-0.3-0.3-0.6-0.6-1-0.8c0.4,0,0.8-0.3,0.8-0.7c0-0.4-0.3-0.7-0.8-0.7c-0.5,0-0.9,0.3-0.9,0.7
					c0,0.1,0,0.2,0.1,0.3c-0.5-0.2-1-0.4-1.5-0.5c0.4,0,0.7-0.3,0.7-0.7c0-0.4-0.3-0.7-0.8-0.7s-0.9,0.3-0.9,0.7
					c0,0.3,0.1,0.5,0.4,0.6c-0.5-0.1-1-0.1-1.4-0.2c0,0-0.1,0-0.1,0c-0.3,0-0.6-0.1-0.7-0.4c-0.1-0.1-0.1-0.2-0.2-0.2
					c0.1,0,0.2,0,0.2,0c0.5,0,0.9-0.3,0.9-0.7s-0.3-0.7-0.8-0.7s-0.9,0.3-0.9,0.7c0,0.1,0,0.1,0,0.2c-0.3-0.2-0.7-0.5-1.1-0.7
					c0.5,0,0.8-0.3,0.9-0.7c0-0.4-0.3-0.7-0.8-0.7s-0.9,0.3-0.9,0.7c0,0.1,0,0.3,0.1,0.4c-0.4-0.2-0.9-0.4-1.3-0.6
					c0.4-0.1,0.6-0.3,0.7-0.6c0-0.4-0.3-0.7-0.8-0.7c-0.5,0-0.9,0.3-0.9,0.7c0,0.1,0,0.2,0.1,0.3c-0.2-0.1-0.5-0.2-0.7-0.3
					c-0.5-0.2-0.9-0.4-1.1-0.7c-0.1-0.1-0.2-0.2-0.2-0.4c0-0.5,0.5-0.4,0.6-0.2c0.3,0.6,1.3,0.7,1.3,0.7c-0.1-0.2-0.2-0.4-0.2-0.4
					c0.7-0.1,1.1-0.7,1.1-0.7c-0.2-0.6-0.9-0.9-0.9-0.9c0.1-0.1,0.1-0.2,0.1-0.3c-0.8,0-0.8,0.1-1.2,0.4c-0.4,0.2-0.6-0.2-0.6-0.2
					c-0.2-0.4,0.7,0.1,0.9-1.3c-0.3,0.1-0.4,0.1-0.4,0.1c0.1-0.5-0.7-1.1-0.8-1.2C109.1,63.4,108.2,63.9,108.3,64.4"/>
			</defs>
			<clipPath id="SVGID_92_">
				<use xlink:href="#SVGID_91_"  style="overflow:visible;"/>
			</clipPath>
			
				<linearGradient id="SVGID_93_" gradientUnits="userSpaceOnUse" x1="-816.0624" y1="186.3596" x2="-815.3427" y2="186.3596" gradientTransform="matrix(-6.8677 131.0889 -131.0889 -6.8677 18934.2734 108320.5859)">
				<stop  offset="0" style="stop-color:#DABF8D"/>
				<stop  offset="1" style="stop-color:#AE905D"/>
			</linearGradient>
			<polygon class="st30" points="125.8,63.3 124.8,84.2 91.4,82.5 92.5,61.6 			"/>
		</g>
	</g>
	<g>
		<g>
			<defs>
				<path id="SVGID_94_" d="M97,82.1l0.5,1.5c0,0,4.8-1.3,10.7-1c5.9,0.3,10.5,2.1,10.5,2.1l0.7-1.4c-5.6-2.1-11.1-2.2-11.1-2.2
					s-0.8-0.1-2.2-0.1C104,81,100.5,81.1,97,82.1"/>
			</defs>
			<clipPath id="SVGID_95_">
				<use xlink:href="#SVGID_94_"  style="overflow:visible;"/>
			</clipPath>
			
				<linearGradient id="SVGID_96_" gradientUnits="userSpaceOnUse" x1="-816.0626" y1="186.3585" x2="-815.3428" y2="186.3585" gradientTransform="matrix(-6.8677 131.0903 -131.0903 -6.8677 18934.5117 108321.7031)">
				<stop  offset="0" style="stop-color:#DABF8D"/>
				<stop  offset="1" style="stop-color:#AE905D"/>
			</linearGradient>
			<polygon class="st31" points="119.6,81 119.4,85.9 96.8,84.7 97,79.8 			"/>
		</g>
	</g>
	<g>
		<g>
			<defs>
				<path id="SVGID_97_" d="M101.6,93.1l2.8,6.3h-2.8V93.1z M111.5,93.1v6.3h-2.8L111.5,93.1z M101.4,93v6.4h-2.8L101.4,93z
					 M111.6,93l2.8,6.4h-2.8V93z M106,89.9v0.5l0.4,0.2c0,0,0.1,0.9-0.2,0.9V92c0,0-0.2,0.2-0.9-0.2s-1.3-0.2-2,0.2
					c-0.8,0.4-1.2,0.5-2.2,0.2l-0.1,0.3c0,0,0.1,0.1,0.4,0.2l-3,6.8l0,0c0.1,1,1.5,1.7,3.1,1.7c1.6,0,3-0.8,3.1-1.7l0,0l-3-6.7
					c0.4,0.1,1,0.1,1.7-0.1c1.3-0.5,2.1-0.4,2.8,0.3l0,0.3c0,0,0.2,0,0.2,0.4c0,0-0.2,0.2-0.2,0.4c0,0.2,0.1,5.4,0.1,5.4l0,2.6
					c0,0,0,0.2-0.2,0.2v0.7h-1.5c-0.2,0-0.4,0.1-0.5,0.2l-0.3,0.3h-0.5c-0.4,0-0.8,0.3-0.8,0.8h8.2c0-0.4-0.3-0.8-0.8-0.8h-0.4
					l-0.3-0.3c-0.1-0.1-0.3-0.2-0.5-0.2h-1.5v-0.7c-0.2,0-0.2-0.2-0.2-0.2l0-2.6c0,0,0.1-5.2,0.1-5.4c0-0.2-0.2-0.4-0.2-0.4
					c-0.1-0.4,0.2-0.4,0.2-0.4l0-0.3c0.7-0.7,1.5-0.8,2.7-0.3c0.7,0.3,1.3,0.2,1.7,0.1l-3,6.7l0,0c0.1,1,1.5,1.7,3.1,1.7
					s3-0.8,3.1-1.7l0,0l-3-6.8c0.2-0.1,0.4-0.2,0.4-0.2l-0.1-0.3c-1,0.3-1.4,0.2-2.2-0.2s-1.3-0.6-2-0.2c-0.7,0.4-0.9,0.2-0.9,0.2
					v-0.4c-0.3,0-0.2-0.9-0.2-0.9l0.4-0.2v-0.5l-0.5-0.3L106,89.9z"/>
			</defs>
			<clipPath id="SVGID_98_">
				<use xlink:href="#SVGID_97_"  style="overflow:visible;"/>
			</clipPath>
			
				<linearGradient id="SVGID_99_" gradientUnits="userSpaceOnUse" x1="-812.6247" y1="182.9848" x2="-811.905" y2="182.9848" gradientTransform="matrix(0 74.0795 -74.0795 0 13661.9414 60270.6602)">
				<stop  offset="0" style="stop-color:#DABF8D"/>
				<stop  offset="1" style="stop-color:#AE905D"/>
			</linearGradient>
			<rect x="98.4" y="89.6" class="st32" width="16.3" height="14.5"/>
		</g>
	</g>
</g>
<text transform="matrix(1 0 0 1 52.0057 144.0799)" class="st33 st34 st35">LIU XIAO KUAI JI</text>
</svg>
